<?xml version="1.0" standalone="no"?>
<!DOCTYPE svg PUBLIC "-//W3C//DTD SVG 20010904//EN"
 "http://www.w3.org/TR/2001/REC-SVG-20010904/DTD/svg10.dtd">
<svg version="1.0" xmlns="http://www.w3.org/2000/svg"
 width="850.000000pt" height="311.000000pt" viewBox="0 0 850.000000 311.000000"
 preserveAspectRatio="xMidYMid meet">

<g transform="translate(0.000000,311.000000) scale(0.100000,-0.100000)"
fill="#000000" stroke="none">
<path d="M0 1555 l0 -1555 4250 0 4250 0 0 1555 0 1555 -4250 0 -4250 0 0
-1555z m2684 715 c232 -24 309 -92 342 -300 21 -127 29 -518 15 -685 -19 -223
-40 -294 -107 -359 -90 -87 -215 -101 -934 -101 -695 0 -835 13 -923 85 -85
71 -110 158 -128 456 -18 305 9 653 60 752 27 54 95 109 153 127 48 14 221 32
368 39 168 7 1052 -3 1154 -14z m3846 -272 l1 -243 20 28 c24 32 91 72 135 81
52 11 115 -9 151 -48 60 -65 68 -117 68 -421 0 -291 -7 -340 -57 -415 -66 -97
-219 -98 -301 0 l-26 30 -8 -42 -9 -43 -87 -3 -87 -3 0 661 0 660 100 0 100 0
0 -242z m-3060 189 c0 -2 27 -130 60 -285 33 -154 60 -290 60 -301 0 -12 4
-21 8 -21 5 0 16 42 26 93 9 50 38 187 64 302 l47 210 103 3 c60 2 102 -1 102
-7 0 -5 -52 -195 -117 -423 l-116 -413 -2 -180 c-1 -99 -2 -195 -3 -212 l-2
-33 -100 0 -100 0 0 200 0 199 -81 293 c-44 161 -96 348 -114 416 -19 67 -37
132 -40 142 -6 19 -1 20 99 20 58 0 106 -1 106 -3z m2230 -82 l0 -85 -100 0
-100 0 0 -550 0 -550 -105 0 -105 0 0 550 0 550 -106 0 c-93 0 -105 2 -100 16
3 9 6 47 6 85 l0 69 305 0 305 0 0 -85z m-1410 -257 c77 -23 126 -83 157 -193
20 -71 28 -340 14 -453 -27 -220 -97 -293 -281 -293 -151 0 -226 49 -266 175
-22 67 -31 409 -15 515 20 129 71 212 150 243 66 26 165 28 241 6z m3138 -7
c52 -27 92 -78 109 -144 8 -29 17 -125 20 -214 l6 -163 -176 0 -177 0 0 -87
c0 -142 23 -189 87 -181 36 4 62 44 70 107 l6 53 45 -6 c25 -3 64 -6 88 -6
l44 0 0 -47 c0 -68 -17 -118 -52 -159 -45 -51 -99 -75 -182 -81 -141 -11 -231
39 -278 154 -22 56 -23 68 -23 323 0 251 1 268 23 321 44 111 136 163 273 155
50 -2 89 -11 117 -25z m-2648 -355 c0 -207 4 -376 10 -390 14 -38 43 -49 84
-32 19 8 39 23 45 34 7 14 11 144 11 387 l0 366 103 -3 102 -3 3 -462 2 -463
-84 0 -85 0 -7 56 -7 56 -38 -45 c-49 -57 -96 -79 -170 -79 -76 0 -119 26
-151 90 -23 46 -23 52 -26 450 l-3 402 105 0 106 0 0 -364z m1070 -6 c0 -251
4 -377 11 -394 15 -33 46 -39 89 -18 l35 17 6 100 c3 55 5 201 3 325 -2 124 0
251 3 283 l6 57 97 0 98 0 5 -62 c3 -35 5 -243 4 -463 l-2 -400 -81 -3 c-89
-3 -94 0 -94 70 0 15 -4 30 -10 33 -5 3 -10 2 -10 -4 0 -19 -53 -72 -93 -92
-53 -28 -144 -28 -189 -2 -18 10 -44 39 -58 64 l-25 44 -3 408 -3 407 105 0
106 0 0 -370z"/>
<path d="M1790 1550 l0 -309 263 151 c144 82 265 153 269 157 6 5 -509 311
-525 311 -4 0 -7 -139 -7 -310z"/>
<path d="M6593 1710 c-13 -5 -32 -24 -43 -42 -19 -31 -20 -51 -20 -300 l0
-267 26 -20 c33 -26 78 -27 103 -2 31 31 41 110 41 322 0 214 -9 280 -43 304
-24 17 -33 17 -64 5z"/>
<path d="M4137 1702 c-27 -30 -37 -114 -37 -317 0 -275 16 -340 84 -333 25 2
35 11 50 42 17 35 19 64 19 285 1 258 -6 311 -43 331 -28 15 -55 12 -73 -8z"/>
<path d="M7234 1699 c-16 -18 -20 -40 -23 -140 l-3 -119 77 0 78 0 -5 114 c-5
135 -18 166 -72 166 -21 0 -40 -8 -52 -21z"/>
</g>
</svg>
